<svg width="16" height="16" viewBox="0 0 16 16" fill="none" xmlns="http://www.w3.org/2000/svg"><path d="M0 4.135c0-.4.475-.688.855-.565C1.501 3.78 2.53 4 4 4c2.8 0 4.8-1.6 8-1.6 1.662 0 2.677.216 3.268.424.5.175.732.674.732 1.205v7.837c0 .4-.475.688-.855.564C14.499 12.22 13.47 12 12 12c-2.8 0-4.8 1.6-8 1.6-1.662 0-2.677-.216-3.268-.423-.5-.176-.732-.675-.732-1.205V4.135z" fill="#EE1C25"/><path fill-rule="evenodd" clip-rule="evenodd" d="M7.354 4.42c.074.433-.321.91-.788.924a.55.55 0 0 1-.367-.116.513.513 0 0 1-.19-.324c-.074-.438.32-.882.788-.902.13-.011.26.026.364.103.103.078.172.19.193.315zm.848 2.266c.467-.043.866-.532.788-.962a.46.46 0 0 0-.193-.308.496.496 0 0 0-.363-.085c-.467.045-.865.522-.789.954.02.124.089.236.193.31a.508.508 0 0 0 .364.091zM8.99 7.96c.078.43-.321.92-.788.962a.509.509 0 0 1-.364-.09.474.474 0 0 1-.193-.31c-.073-.433.322-.91.789-.955a.505.505 0 0 1 .363.085.477.477 0 0 1 .195.308H8.99zM6.567 11c.467-.015.865-.492.789-.925a.497.497 0 0 0-.194-.314.532.532 0 0 0-.364-.103c-.467.02-.865.464-.788.902.02.127.088.241.19.323a.549.549 0 0 0 .365.116h.002z" fill="#FF0"/><path d="M4.89 9.999a.219.219 0 0 1-.14-.033c-.502-.34-.753-.52-1.255-.923-.42.313-.86.6-1.313.858a.194.194 0 0 1-.132.02.29.29 0 0 1-.218-.363c.195-.599.292-.906.485-1.52-.49-.475-.736-.73-1.228-1.282a.38.38 0 0 1-.07-.121.264.264 0 0 1-.006-.178.163.163 0 0 1 .13-.108c.03-.003.06 0 .089.008a7.08 7.08 0 0 0 1.56.288c.192-.588.288-.886.48-1.484a.234.234 0 0 1 .083-.117.22.22 0 0 1 .27.003c.038.03.068.073.083.12.208.61.312.911.52 1.509.517-.023 1.033-.08 1.543-.173a.186.186 0 0 1 .133.022c.04.023.07.061.086.107a.293.293 0 0 1-.081.288c-.507.5-.761.744-1.269 1.2l.466 1.536a.28.28 0 0 1-.086.282.222.222 0 0 1-.13.06z" fill="#FF0"/></svg>