<svg width="30" height="30" viewBox="0 0 30 30" fill="none" xmlns="http://www.w3.org/2000/svg"><path fill-rule="evenodd" clip-rule="evenodd" d="M15 30c8.284 0 15-6.716 15-15 0-8.284-6.716-15-15-15C6.716 0 0 6.716 0 15c0 8.284 6.716 15 15 15zm3.67-14.537c.362-.181.633-.316.836-.316a1.223 1.223 0 0 1 1.22 1.22c0 .582-.334.83-.577 1.01a7.203 7.203 0 0 0-.033.026c-.732.427-3.049 1.402-3.049 1.402l2.56 3.293s.489.61.489.975a1.223 1.223 0 0 1-1.22 1.22c-.61 0-.915-.427-.915-.427l-2.743-3.232-2.805 3.232s-.305.427-.915.427c-.67 0-1.22-.55-1.22-1.22 0-.427.488-.976.488-.976l2.622-3.292s-2.316-.975-3.048-1.402c-.244-.122-.61-.427-.61-1.037a1.223 1.223 0 0 1 1.22-1.22c.202 0 .473.136.835.317.722.361 1.806.903 3.433.903 1.626 0 2.71-.542 3.433-.903zM13.6 6.318A4.242 4.242 0 0 1 15.238 6a4.242 4.242 0 0 1 4.268 4.268 4.242 4.242 0 0 1-4.268 4.269 4.242 4.242 0 0 1-4.269-4.269 4.242 4.242 0 0 1 2.631-3.95zm-.497 3.95c0 1.16.977 2.134 2.135 2.134s2.134-.975 2.134-2.133c0-1.16-.976-2.135-2.134-2.135s-2.135.976-2.135 2.134z" fill="#F2720C"/></svg>