<svg width="40" height="40" viewBox="0 0 40 40" fill="none" xmlns="http://www.w3.org/2000/svg"><path fill-rule="evenodd" clip-rule="evenodd" d="M40 20c0 11.046-8.954 20-20 20S0 31.046 0 20 8.954 0 20 0s20 8.954 20 20zm-18.208-5.723-13.468 5.55c-2.37.924-.983 1.791-.983 1.791s2.023.694 3.757 1.214 2.66-.058 2.66-.058l8.15-5.49c2.89-1.966 2.196-.348 1.502.346-1.503 1.503-3.988 3.873-6.069 5.78-.925.81-.462 1.503-.058 1.85 1.176.995 3.946 2.805 5.205 3.628.35.228.583.38.633.418.29.232 1.908 1.272 2.89 1.04.983-.23 1.099-1.56 1.099-1.56l1.445-9.075c.128-.85.257-1.684.377-2.46.311-2.02.564-3.66.606-4.245.173-1.966-1.908-1.156-1.908-1.156s-4.509 1.85-5.838 2.427z" fill="url(#telegram_svg__a)"/><defs><linearGradient id="telegram_svg__a" x1="26.668" y1="6.668" x2="16.668" y2="30" gradientUnits="userSpaceOnUse"><stop stop-color="#39B6E4"/><stop offset="1" stop-color="#129BD4"/></linearGradient></defs></svg>