<svg width="40" height="40" viewBox="0 0 40 40" fill="none" xmlns="http://www.w3.org/2000/svg"><path fill-rule="evenodd" clip-rule="evenodd" d="M20 40c11.046 0 20-8.954 20-20S31.046 0 20 0 0 8.954 0 20s8.954 20 20 20zm9.92-23.144a9.82 9.82 0 0 1-5.727-1.832v8.383A7.595 7.595 0 0 1 16.596 31a7.564 7.564 0 0 1-4.229-1.284 7.595 7.595 0 0 1 5.271-12.9v3.269a3.474 3.474 0 0 0-2.618 6.413 3.474 3.474 0 0 0 6.241-2.09V7.999h2.995a5.75 5.75 0 0 0 2.624 3.88 5.749 5.749 0 0 0 3.04 1.743v3.233z" fill="#010101"/><path fill-rule="evenodd" clip-rule="evenodd" d="M25.396 16.024a9.82 9.82 0 0 0 5.727 1.832v-4.108c-.404 0-.807-.041-1.203-.125v3.233a9.82 9.82 0 0 1-5.727-1.832v8.383A7.595 7.595 0 0 1 16.596 31a7.563 7.563 0 0 1-4.229-1.284A7.575 7.575 0 0 0 17.8 32c4.195 0 7.597-3.4 7.597-7.593v-8.383zm1.483-4.144a5.724 5.724 0 0 1-1.483-3.352V8h-1.14a5.75 5.75 0 0 0 2.623 3.88zM15.021 26.498a3.474 3.474 0 0 1 3.82-5.413v-4.2a7.662 7.662 0 0 0-1.202-.069v3.269a3.474 3.474 0 0 0-2.618 6.413z" fill="#EE1D52"/><path data-alt-color="true" fill-rule="evenodd" clip-rule="evenodd" d="M29.92 13.623v-.875a5.729 5.729 0 0 1-3.04-.868 5.744 5.744 0 0 0 3.04 1.743zM24.257 8a5.847 5.847 0 0 1-.063-.472V7H20.06v16.407a3.474 3.474 0 0 1-5.039 3.09 3.475 3.475 0 0 0 6.241-2.09V8h2.994zm-6.617 8.816v-.93A7.595 7.595 0 0 0 9 23.407a7.584 7.584 0 0 0 3.369 6.308 7.594 7.594 0 0 1 5.271-12.9z" fill="#69C9D0"/></svg>