<svg width="30" height="30" viewBox="0 0 30 30" fill="none" xmlns="http://www.w3.org/2000/svg"><path fill-rule="evenodd" clip-rule="evenodd" d="M30 15c0 8.284-6.716 15-15 15-8.284 0-15-6.716-15-15C0 6.716 6.716 0 15 0c8.284 0 15 6.716 15 15zm-14.382 5.953h-1.21s-2.671.157-5.023-2.228c-2.565-2.6-4.83-7.763-4.83-7.763s-.131-.337.011-.501c.16-.184.594-.196.594-.196l2.893-.018s.273.044.469.184c.16.115.25.33.25.33s.468 1.152 1.087 2.194c1.21 2.034 1.772 2.479 2.183 2.26.598-.317.418-2.875.418-2.875s.011-.928-.301-1.342c-.242-.32-.697-.414-.898-.44-.164-.02.104-.388.45-.554.521-.248 1.44-.262 2.527-.251.846.008 1.09.06 1.42.137.77.18.745.76.694 2.008-.016.373-.034.806-.034 1.305 0 .113-.003.233-.007.356-.018.64-.038 1.371.394 1.643.221.14.764.021 2.12-2.22.642-1.064 1.124-2.313 1.124-2.313s.105-.222.268-.318c.168-.098.394-.067.394-.067l3.045-.018s.914-.107 1.063.295c.155.423-.342 1.408-1.587 3.023-1.179 1.53-1.753 2.095-1.701 2.593.038.365.411.695 1.128 1.343 1.498 1.354 1.898 2.066 1.993 2.235l.018.03c.67 1.083-.744 1.168-.744 1.168l-2.704.037s-.582.112-1.347-.4c-.4-.266-.79-.703-1.162-1.119-.57-.636-1.097-1.224-1.546-1.085-.754.233-.73 1.815-.73 1.815s.005.337-.166.517c-.187.196-.553.235-.553.235z" fill="#4C75A3"/></svg>